<?xml version="1.0" standalone="no"?>
<!DOCTYPE svg PUBLIC "-//W3C//DTD SVG 20010904//EN"
 "http://www.w3.org/TR/2001/REC-SVG-20010904/DTD/svg10.dtd">
<svg version="1.0" xmlns="http://www.w3.org/2000/svg"
 width="639.000000pt" height="507.000000pt" viewBox="0 0 639.000000 507.000000"
 preserveAspectRatio="xMidYMid meet">

<g transform="translate(0.000000,507.000000) scale(0.100000,-0.100000)"
fill="#000000" stroke="none">
<path d="M2300 3636 c-196 -35 -374 -109 -522 -217 -141 -103 -290 -280 -362
-432 -42 -90 -93 -254 -110 -356 -22 -133 -21 -350 3 -487 22 -125 68 -269
118 -367 l34 -69 102 99 c56 54 127 118 158 142 l56 43 -24 75 c-75 238 -67
523 21 753 98 258 279 418 554 492 120 32 334 29 465 -6 112 -30 157 -50 243
-112 86 -61 174 -173 218 -279 l15 -35 195 0 c107 0 197 3 199 8 7 10 -45 156
-78 222 -130 259 -382 442 -704 512 -123 26 -464 35 -581 14z"/>
<path d="M3816 3602 c-15 -3 -16 -46 -16 -478 l0 -474 173 0 c94 0 182 3 195
6 l22 6 0 469 0 468 -179 3 c-98 2 -185 2 -195 0z"/>
<path d="M3870 2594 c-25 -2 -108 -8 -185 -14 -624 -48 -1212 -226 -1650 -500
-334 -209 -606 -490 -764 -793 -28 -53 -51 -103 -51 -110 0 -10 66 -12 327
-10 412 4 513 10 513 29 0 26 23 25 135 -2 90 -22 142 -28 280 -31 476 -14
813 129 1031 438 57 81 128 227 140 288 l7 31 -193 -2 -192 -3 -30 -55 c-108
-194 -215 -289 -390 -345 -98 -31 -270 -46 -398 -34 -99 9 -200 34 -200 48 0
20 197 214 287 283 251 192 582 347 976 457 206 58 280 73 289 58 4 -7 8 -261
8 -564 l0 -553 900 0 900 0 0 160 0 160 -707 2 -708 3 -3 437 -2 436 27 6
c221 43 733 76 1179 77 179 0 324 2 322 4 -2 2 -62 8 -133 14 -72 6 -182 15
-245 21 -63 5 -250 21 -415 35 -231 20 -381 27 -655 30 -195 1 -375 1 -400 -1z"/>
</g>
</svg>
