<svg width="110" height="34" viewBox="0 0 110 34" fill="none" xmlns="http://www.w3.org/2000/svg">
<path d="M17.1648 11.8693H12.9034C12.8466 11.4318 12.7301 11.0369 12.554 10.6847C12.3778 10.3324 12.1449 10.0312 11.8551 9.78125C11.5653 9.53125 11.2216 9.34091 10.8239 9.21023C10.4318 9.07386 9.99716 9.00568 9.51989 9.00568C8.6733 9.00568 7.94318 9.21307 7.32955 9.62784C6.72159 10.0426 6.25284 10.642 5.9233 11.4261C5.59943 12.2102 5.4375 13.1591 5.4375 14.2727C5.4375 15.4318 5.60227 16.4034 5.93182 17.1875C6.26705 17.9659 6.7358 18.554 7.33807 18.9517C7.94602 19.3437 8.66477 19.5398 9.49432 19.5398C9.96023 19.5398 10.3835 19.4801 10.7642 19.3608C11.1506 19.2415 11.4886 19.0682 11.7784 18.8409C12.0739 18.608 12.3153 18.3267 12.5028 17.9972C12.696 17.6619 12.8295 17.2841 12.9034 16.8636L17.1648 16.8892C17.0909 17.6619 16.8665 18.4233 16.4915 19.1733C16.1222 19.9233 15.6136 20.608 14.9659 21.2273C14.3182 21.8409 13.5284 22.3295 12.5966 22.6932C11.6705 23.0568 10.608 23.2386 9.40909 23.2386C7.82955 23.2386 6.41477 22.892 5.16477 22.1989C3.92045 21.5 2.9375 20.483 2.21591 19.1477C1.49432 17.8125 1.13352 16.1875 1.13352 14.2727C1.13352 12.3523 1.5 10.7244 2.23295 9.3892C2.96591 8.05398 3.95739 7.03977 5.20739 6.34659C6.45739 5.65341 7.85795 5.30682 9.40909 5.30682C10.4659 5.30682 11.4432 5.45455 12.3409 5.75C13.2386 6.03977 14.0284 6.46591 14.7102 7.02841C15.392 7.58523 15.946 8.26989 16.3722 9.08239C16.7983 9.89489 17.0625 10.8239 17.1648 11.8693ZM27.9567 12.6705V15.875H19.8771V12.6705H27.9567ZM30.8991 23V5.54545H35.1179V19.5739H42.3793V23H30.8991ZM44.5632 23V5.54545H56.7337V8.97159H48.782V12.5511H56.1115V15.9858H48.782V19.5739H56.7337V23H44.5632ZM74.2308 5.54545V23H70.6513L63.7053 12.9261H63.5945V23H59.3757V5.54545H63.0064L69.8757 15.6023H70.0206V5.54545H74.2308ZM76.3125 8.97159V5.54545H91.0653V8.97159H85.7727V23H81.6136V8.97159H76.3125ZM108.803 14.2727C108.803 16.1932 108.434 17.821 107.695 19.1562C106.957 20.4915 105.957 21.5057 104.695 22.1989C103.44 22.892 102.031 23.2386 100.468 23.2386C98.8999 23.2386 97.4879 22.8892 96.2322 22.1903C94.9766 21.4915 93.9794 20.4773 93.2408 19.1477C92.5078 17.8125 92.1413 16.1875 92.1413 14.2727C92.1413 12.3523 92.5078 10.7244 93.2408 9.3892C93.9794 8.05398 94.9766 7.03977 96.2322 6.34659C97.4879 5.65341 98.8999 5.30682 100.468 5.30682C102.031 5.30682 103.44 5.65341 104.695 6.34659C105.957 7.03977 106.957 8.05398 107.695 9.3892C108.434 10.7244 108.803 12.3523 108.803 14.2727ZM104.491 14.2727C104.491 13.1364 104.329 12.1761 104.005 11.392C103.687 10.608 103.227 10.0142 102.624 9.61079C102.028 9.20739 101.309 9.00568 100.468 9.00568C99.6328 9.00568 98.9141 9.20739 98.3118 9.61079C97.7095 10.0142 97.2464 10.608 96.9226 11.392C96.6044 12.1761 96.4453 13.1364 96.4453 14.2727C96.4453 15.4091 96.6044 16.3693 96.9226 17.1534C97.2464 17.9375 97.7095 18.5312 98.3118 18.9347C98.9141 19.3381 99.6328 19.5398 100.468 19.5398C101.309 19.5398 102.028 19.3381 102.624 18.9347C103.227 18.5312 103.687 17.9375 104.005 17.1534C104.329 16.3693 104.491 15.4091 104.491 14.2727Z" fill="#DBE2EF"/>
<path d="M13.5852 27.9261C13.5663 27.7178 13.482 27.5559 13.3324 27.4403C13.1847 27.3229 12.9735 27.2642 12.6989 27.2642C12.517 27.2642 12.3655 27.2879 12.2443 27.3352C12.1231 27.3826 12.0322 27.4479 11.9716 27.5312C11.911 27.6127 11.8797 27.7064 11.8778 27.8125C11.8741 27.8996 11.8911 27.9763 11.929 28.0426C11.9688 28.1089 12.0256 28.1676 12.0994 28.2188C12.1752 28.268 12.2661 28.3116 12.3722 28.3494C12.4782 28.3873 12.5975 28.4205 12.7301 28.4489L13.2301 28.5625C13.518 28.625 13.7718 28.7083 13.9915 28.8125C14.2131 28.9167 14.3987 29.0407 14.5483 29.1847C14.6998 29.3286 14.8144 29.4943 14.892 29.6818C14.9697 29.8693 15.0095 30.0795 15.0114 30.3125C15.0095 30.6799 14.9167 30.9953 14.733 31.2585C14.5492 31.5218 14.285 31.7235 13.9403 31.8636C13.5975 32.0038 13.1837 32.0739 12.6989 32.0739C12.2121 32.0739 11.7879 32.0009 11.4261 31.8551C11.0644 31.7093 10.7831 31.4877 10.5824 31.1903C10.3816 30.893 10.2784 30.517 10.2727 30.0625H11.6193C11.6307 30.25 11.6809 30.4062 11.7699 30.5312C11.8589 30.6562 11.9811 30.7509 12.1364 30.8153C12.2936 30.8797 12.4754 30.9119 12.6818 30.9119C12.8712 30.9119 13.0322 30.8864 13.1648 30.8352C13.2992 30.7841 13.4025 30.7131 13.4744 30.6222C13.5464 30.5312 13.5833 30.4271 13.5852 30.3097C13.5833 30.1998 13.5492 30.1061 13.483 30.0284C13.4167 29.9489 13.3144 29.8807 13.1761 29.8239C13.0398 29.7652 12.8655 29.7112 12.6534 29.6619L12.0455 29.5199C11.5417 29.4044 11.1449 29.2178 10.8551 28.9602C10.5653 28.7008 10.4214 28.3504 10.4233 27.9091C10.4214 27.5492 10.518 27.2339 10.7131 26.9631C10.9081 26.6922 11.178 26.4811 11.5227 26.3295C11.8674 26.178 12.2604 26.1023 12.7017 26.1023C13.1525 26.1023 13.5436 26.179 13.875 26.3324C14.2083 26.4839 14.4669 26.697 14.6506 26.9716C14.8343 27.2462 14.928 27.5644 14.9318 27.9261H13.5852ZM21.2131 29.0909C21.2131 29.7311 21.09 30.2737 20.8438 30.7188C20.5975 31.1638 20.2642 31.5019 19.8438 31.733C19.4252 31.964 18.9555 32.0795 18.4347 32.0795C17.9119 32.0795 17.4413 31.9631 17.0227 31.7301C16.6042 31.4972 16.2718 31.1591 16.0256 30.7159C15.7812 30.2708 15.6591 29.7292 15.6591 29.0909C15.6591 28.4508 15.7812 27.9081 16.0256 27.4631C16.2718 27.018 16.6042 26.6799 17.0227 26.4489C17.4413 26.2178 17.9119 26.1023 18.4347 26.1023C18.9555 26.1023 19.4252 26.2178 19.8438 26.4489C20.2642 26.6799 20.5975 27.018 20.8438 27.4631C21.09 27.9081 21.2131 28.4508 21.2131 29.0909ZM19.7756 29.0909C19.7756 28.7121 19.7216 28.392 19.6136 28.1307C19.5076 27.8693 19.3542 27.6714 19.1534 27.5369C18.9545 27.4025 18.715 27.3352 18.4347 27.3352C18.1563 27.3352 17.9167 27.4025 17.7159 27.5369C17.5152 27.6714 17.3608 27.8693 17.2528 28.1307C17.1468 28.392 17.0938 28.7121 17.0938 29.0909C17.0938 29.4697 17.1468 29.7898 17.2528 30.0511C17.3608 30.3125 17.5152 30.5104 17.7159 30.6449C17.9167 30.7794 18.1563 30.8466 18.4347 30.8466C18.715 30.8466 18.9545 30.7794 19.1534 30.6449C19.3542 30.5104 19.5076 30.3125 19.6136 30.0511C19.7216 29.7898 19.7756 29.4697 19.7756 29.0909ZM22.0341 32V26.1818H26.0057V27.3239H23.4403V28.517H25.7528V29.6619H23.4403V32H22.0341ZM26.5234 27.3239V26.1818H31.4411V27.3239H29.6768V32H28.2905V27.3239H26.5234ZM33.5227 32L31.8295 26.1818H33.3835L34.2614 29.9943H34.3097L35.3125 26.1818H36.5795L37.5824 30.0028H37.6307L38.5114 26.1818H40.0625L38.3722 32H37.017L35.9688 28.4716H35.9233L34.875 32H33.5227ZM41.2692 32H39.7578L41.7209 26.1818H43.593L45.5561 32H44.0447L42.6783 27.6477H42.6328L41.2692 32ZM41.0675 29.7102H44.2266V30.7784H41.0675V29.7102ZM46.1825 32V26.1818H48.5859C49.0215 26.1818 49.3975 26.2604 49.7138 26.4176C50.032 26.5729 50.2772 26.7964 50.4496 27.0881C50.6219 27.3778 50.7081 27.7216 50.7081 28.1193C50.7081 28.5227 50.62 28.8655 50.4439 29.1477C50.2678 29.428 50.0178 29.642 49.6939 29.7898C49.37 29.9356 48.9865 30.0085 48.5433 30.0085H47.0234V28.9006H48.282C48.4941 28.9006 48.6712 28.8731 48.8132 28.8182C48.9571 28.7614 49.0661 28.6761 49.1399 28.5625C49.2138 28.447 49.2507 28.2992 49.2507 28.1193C49.2507 27.9394 49.2138 27.7907 49.1399 27.6733C49.0661 27.554 48.9571 27.465 48.8132 27.4062C48.6693 27.3456 48.4922 27.3153 48.282 27.3153H47.5888V32H46.1825ZM49.4581 29.3409L50.907 32H49.3729L47.9524 29.3409H49.4581ZM51.4794 32V26.1818H55.5362V27.3239H52.8857V28.517H55.3288V29.6619H52.8857V30.858H55.5362V32H51.4794ZM63.4169 28.2898H61.9964C61.9775 28.1439 61.9387 28.0123 61.88 27.8949C61.8213 27.7775 61.7436 27.6771 61.647 27.5938C61.5504 27.5104 61.4358 27.447 61.3033 27.4034C61.1726 27.358 61.0277 27.3352 60.8686 27.3352C60.5864 27.3352 60.343 27.4044 60.1385 27.5426C59.9358 27.6809 59.7796 27.8807 59.6697 28.142C59.5618 28.4034 59.5078 28.7197 59.5078 29.0909C59.5078 29.4773 59.5627 29.8011 59.6726 30.0625C59.7843 30.322 59.9406 30.518 60.1413 30.6506C60.344 30.7812 60.5836 30.8466 60.8601 30.8466C61.0154 30.8466 61.1565 30.8267 61.2834 30.7869C61.4122 30.7472 61.5249 30.6894 61.6214 30.6136C61.7199 30.536 61.8004 30.4422 61.8629 30.3324C61.9273 30.2206 61.9718 30.0947 61.9964 29.9545L63.4169 29.9631C63.3923 30.2206 63.3175 30.4744 63.1925 30.7244C63.0694 30.9744 62.8999 31.2027 62.6839 31.4091C62.468 31.6136 62.2048 31.7765 61.8942 31.8977C61.5855 32.0189 61.2313 32.0795 60.8317 32.0795C60.3052 32.0795 59.8336 31.964 59.4169 31.733C59.0021 31.5 58.6745 31.161 58.4339 30.7159C58.1934 30.2708 58.0732 29.7292 58.0732 29.0909C58.0732 28.4508 58.1953 27.9081 58.4396 27.4631C58.6839 27.018 59.0144 26.6799 59.4311 26.4489C59.8478 26.2178 60.3146 26.1023 60.8317 26.1023C61.1839 26.1023 61.5097 26.1515 61.8089 26.25C62.1082 26.3466 62.3714 26.4886 62.5987 26.6761C62.826 26.8617 63.0107 27.09 63.1527 27.3608C63.2947 27.6316 63.3828 27.9413 63.4169 28.2898ZM69.7131 29.0909C69.7131 29.7311 69.59 30.2737 69.3438 30.7188C69.0975 31.1638 68.7642 31.5019 68.3438 31.733C67.9252 31.964 67.4555 32.0795 66.9347 32.0795C66.4119 32.0795 65.9413 31.9631 65.5227 31.7301C65.1042 31.4972 64.7718 31.1591 64.5256 30.7159C64.2812 30.2708 64.1591 29.7292 64.1591 29.0909C64.1591 28.4508 64.2812 27.9081 64.5256 27.4631C64.7718 27.018 65.1042 26.6799 65.5227 26.4489C65.9413 26.2178 66.4119 26.1023 66.9347 26.1023C67.4555 26.1023 67.9252 26.2178 68.3438 26.4489C68.7642 26.6799 69.0975 27.018 69.3438 27.4631C69.59 27.9081 69.7131 28.4508 69.7131 29.0909ZM68.2756 29.0909C68.2756 28.7121 68.2216 28.392 68.1136 28.1307C68.0076 27.8693 67.8542 27.6714 67.6534 27.5369C67.4545 27.4025 67.215 27.3352 66.9347 27.3352C66.6563 27.3352 66.4167 27.4025 66.2159 27.5369C66.0152 27.6714 65.8608 27.8693 65.7528 28.1307C65.6468 28.392 65.5938 28.7121 65.5938 29.0909C65.5938 29.4697 65.6468 29.7898 65.7528 30.0511C65.8608 30.3125 66.0152 30.5104 66.2159 30.6449C66.4167 30.7794 66.6563 30.8466 66.9347 30.8466C67.215 30.8466 67.4545 30.7794 67.6534 30.6449C67.8542 30.5104 68.0076 30.3125 68.1136 30.0511C68.2216 29.7898 68.2756 29.4697 68.2756 29.0909ZM70.5341 26.1818H72.2756L73.7528 29.7841H73.821L75.2983 26.1818H77.0398V32H75.6705V28.4261H75.6222L74.2244 31.9631H73.3494L71.9517 28.4062H71.9034V32H70.5341V26.1818ZM77.9169 32V26.1818H80.3203C80.7559 26.1818 81.1319 26.267 81.4482 26.4375C81.7663 26.6061 82.0116 26.8419 82.1839 27.1449C82.3563 27.446 82.4425 27.7964 82.4425 28.196C82.4425 28.5975 82.3544 28.9489 82.1783 29.25C82.004 29.5492 81.755 29.7812 81.4311 29.946C81.1072 30.1108 80.7228 30.1932 80.2777 30.1932H78.7947V29.0852H80.0163C80.2285 29.0852 80.4055 29.0483 80.5476 28.9744C80.6915 28.9006 80.8004 28.7973 80.8743 28.6648C80.9482 28.5303 80.9851 28.3741 80.9851 28.196C80.9851 28.0161 80.9482 27.8608 80.8743 27.7301C80.8004 27.5975 80.6915 27.4953 80.5476 27.4233C80.4036 27.3513 80.2266 27.3153 80.0163 27.3153H79.3232V32H77.9169ZM83.6911 32H82.1797L84.1428 26.1818H86.0149L87.978 32H86.4666L85.1001 27.6477H85.0547L83.6911 32ZM83.4893 29.7102H86.6484V30.7784H83.4893V29.7102ZM93.5561 26.1818V32H92.3629L90.0476 28.642H90.0107V32H88.6044V26.1818H89.8146L92.1044 29.5341H92.1527V26.1818H93.5561ZM94.1506 26.1818H95.7216L96.9517 28.6165H97.0028L98.233 26.1818H99.804L97.6761 30.0568V32H96.2784V30.0568L94.1506 26.1818Z" fill="#DBE2EF"/>
</svg>
