<svg width="503" height="477" viewBox="0 0 503 477" fill="none" xmlns="http://www.w3.org/2000/svg">
<g clip-path="url(#clip0_20_65)">
<path d="M130.816 261.036C132.435 265.841 131.275 270.573 128.226 271.605C125.177 272.638 121.394 269.58 119.775 264.774C119.102 262.863 118.896 260.818 119.172 258.81L112.57 238.366L122.202 235.463L127.688 255.926C129.123 257.354 130.195 259.107 130.816 261.036Z" fill="#FFB6B6"/>
<path d="M134.86 145.244C134.86 145.244 120.316 145.879 119.684 153.489C119.051 161.099 100.985 208.565 100.985 208.565L115.192 252.099L126.241 244.975L119.927 210.94L141.236 178.488L134.86 145.244Z" fill="#3F72AF"/>
<path d="M454.924 104.351C454.924 74.5696 429.825 58.1869 401.156 50.4275C364.399 40.4792 337.478 60.61 347.388 104.351C349.634 114.264 355.005 125.842 361.654 135.746H414.417C432.042 124.239 454.924 127.466 454.924 104.351Z" fill="#3F72AF"/>
<path d="M98.5718 454.549L106.268 455.705L114.932 421.469L103.575 419.761L98.5718 454.549Z" fill="#FFB6B6"/>
<path d="M123.03 474.04C122.866 475.348 121.808 476.291 120.666 476.147L105.344 474.215C105.344 474.215 104.599 467.946 98.7791 464.555L97.2645 473.196L89.3605 472.199L92.0713 458.34C92.0713 458.34 90.8948 450.593 95.7654 447.324C100.636 444.055 97.0125 444.138 97.0125 444.138L99.825 435.704L111.592 438.619L109.977 452.212L114.082 466.425L122.056 471.709C122.765 472.18 123.148 473.096 123.03 474.04Z" fill="#2F2E41"/>
<path d="M192.025 456.64L199.805 456.825L204.141 421.771L192.66 421.499L192.025 456.64Z" fill="#FFB6B6"/>
<path d="M218.717 472.919C218.717 474.237 217.784 475.305 216.633 475.305H201.191C201.191 475.305 199.671 469.179 193.475 466.542L193.048 475.305H185.081L186.047 461.215C186.047 461.215 183.915 453.677 188.341 449.823C192.767 445.97 189.182 446.506 189.182 446.506L190.923 437.786L202.961 439.205L203.05 452.895L208.892 466.483L217.46 470.728C218.223 471.106 218.717 471.967 218.717 472.919Z" fill="#2F2E41"/>
<path d="M133.867 225.586L118.874 275.269L121.569 350.39L99.9487 427.023H117.115L152.881 351.421L162.547 284.421L189.273 429.751H205.882L202.008 277.427L189.924 224.279L133.867 225.586Z" fill="#2F2E41"/>
<path d="M172.325 126.876L150.814 125.568L144.948 137.335L123.437 149.102L139.081 190.94L126.241 248.933C126.241 248.933 139.451 236.618 154.653 252.099C177.167 275.024 200.429 263.971 200.429 263.971L187.012 203.025L191.748 152.368C192.356 148.372 197.927 143.392 194.115 142.078L178.191 135.374L172.325 126.876Z" fill="#3F72AF"/>
<path d="M167.577 134.313H141.849C141.887 132.559 141.63 130.819 141.101 129.241C141.086 130.992 140.821 132.719 140.322 134.313H139.153C137.366 134.31 135.917 132.209 135.915 129.616C129.87 122.882 130.663 114.62 135.915 105.362C135.916 93.4867 142.915 75.6849 150.52 83.1341C150.765 83.1156 154.62 80.6384 154.866 80.6384C161.556 80.6463 163.857 89.405 165.877 98.6578C168.179 97.1188 169.765 103.543 170.913 114.851C171.248 118.15 171.545 121.866 171.813 125.921C172.55 129.323 171.247 132.949 168.902 134.019C168.472 134.215 168.025 134.315 167.575 134.316L167.577 134.313Z" fill="#2F2E41"/>
<path d="M162.318 123.891C172.759 123.891 181.223 115.402 181.223 104.931C181.223 94.4595 172.759 85.9708 162.318 85.9708C151.877 85.9708 143.412 94.4595 143.412 104.931C143.412 115.402 151.877 123.891 162.318 123.891Z" fill="#FFB6B6"/>
<path d="M164.124 134.955C162.353 137.322 159.255 138.265 156.471 137.282L148.051 134.312C147.263 134.312 146.593 133.849 146.556 133.249L146.552 133.183C146.468 131.933 144.165 131.723 143.631 132.907C143.416 133.383 143.171 133.852 142.897 134.312H141.371V97.4182C141.371 91.0901 148.103 85.9603 156.408 85.9603C163.499 85.9603 169.626 89.7344 171.111 95.0173C171.111 95.0173 181.652 104.868 175.44 110.407C169.227 115.945 178.265 120.453 178.265 120.453C180.06 126.835 174.354 137.208 166.276 139.321C165.326 139.57 165.132 134.955 164.124 134.955Z" fill="#2F2E41"/>
<path d="M185.872 102.115C185.097 103.219 183.071 106.114 176.752 105.669C175.143 105.553 169.426 103.975 165.266 104.052C162.508 104.101 160.811 104.081 157.416 104.052C153.402 104.014 152.303 103.936 151.528 103.084C150.027 101.428 151.263 98.4834 150.547 98.2413C149.948 98.0379 148.398 99.8586 147.603 102.115C145.935 106.851 151.921 113.447 152.509 119.548C153.137 126.125 146.956 113.524 147.603 119.548C148.329 126.328 150.93 125.815 150.9 128.265C150.89 128.633 150.782 128.953 150.547 129.233C150.341 129.485 150.135 129.582 146.622 130.202C142.422 130.948 140.312 131.316 139.753 131.17C138.311 130.802 136.849 128.759 135.828 127.296C134.14 124.904 135.337 127.316 135.828 124.391C136.299 121.563 137.771 121.195 137.791 118.58C137.81 115.287 135.485 114.289 133.866 110.832C130.873 104.44 133.797 97.0403 134.847 94.3672C135.351 93.0853 136.266 91.4629 137.869 88.7823C139.156 86.6303 140.863 84.7346 142.946 83.3142C146.068 81.1853 149.694 79.7266 153.615 79.1486C155.763 78.832 157.952 78.9983 160.063 79.499L165.532 80.7959C167.831 81.341 169.998 82.3291 171.909 83.7033C173.689 83.7091 175.234 84.8452 175.844 86.4964C175.908 86.6692 175.966 86.7699 176.014 86.7551C185.872 83.7137 185.866 92.7219 185.757 98.3493C185.746 98.9252 185.767 99.4349 185.843 99.849V99.878C186.039 100.992 186.088 101.805 185.872 102.115Z" fill="#2F2E41"/>
<path d="M69.8457 461.986C68.2151 462.089 67.314 460.057 68.5476 458.873L68.6703 458.384C68.6542 458.345 68.6381 458.306 68.6218 458.267C66.9689 454.315 64.0095 458.045 59.7447 458.311C53.4725 458.701 53.5662 463.458 55.996 469.021C56.6556 470.531 51.0564 458.346 51.0564 450.167C51.0564 448.112 51.1686 446.057 51.398 444.007C51.5866 442.33 51.8465 440.663 52.183 439.012C54.0028 430.086 57.9433 421.584 63.627 414.483C66.3594 412.985 68.638 410.644 70.0143 407.837C70.5087 406.825 74.757 405.97 74.9405 404.861C74.6296 404.901 69.9072 399.918 70.1418 399.627C69.7084 398.967 68.9328 398.64 68.4595 397.996C66.1058 394.796 62.8629 395.354 61.17 399.704C57.5535 401.534 57.5185 404.57 59.7376 407.49C61.1493 409.347 61.3433 411.861 62.582 413.849C62.4546 414.013 62.322 414.171 62.1946 414.335C62.1456 414.398 62.0968 414.461 62.0481 414.524C60.0486 417.119 56.0562 416.454 54.9428 413.371C54.8616 413.146 54.1724 425.327 54.691 412.719C55.2096 400.111 50.688 406.53 48.3988 403.622C45.6646 400.149 40.1026 401.728 39.6208 406.126C39.6162 406.168 39.6117 406.21 39.6073 406.252C39.9458 406.444 40.2774 406.647 40.6014 406.862C42.4477 408.087 41.8089 410.957 39.6211 411.296L39.5716 411.303C39.6939 412.525 39.9029 413.737 40.2088 414.928C37.2879 426.256 43.5916 430.384 52.5944 430.571L53.0635 431.241C52.211 433.701 51.5252 436.22 51.0105 438.772C50.5263 441.138 50.1898 443.531 50.0012 445.934L49.9934 446.037C49.8372 448.081 47.2584 448.95 45.9623 447.365C45.6324 446.961 45.2948 446.608 44.9546 446.327C41.0513 443.112 35.5368 441.928 31.3259 439.343C29.2988 438.099 26.7014 439.707 27.0551 442.063L27.0724 442.176C27.6993 442.432 28.311 442.728 28.9024 443.061C29.2412 443.252 29.5731 443.456 29.8973 443.671C31.7438 444.896 31.1046 447.767 28.9162 448.104L28.8666 448.112C28.831 448.117 28.8004 448.122 28.7647 448.127L28.7971 448.204C30.205 451.525 33.5699 453.677 37.1632 453.479C41.3929 453.248 46.6468 456.794 51.2807 463.065L51.2858 463.065C52.2034 467.073 53.544 470.989 55.267 474.721H69.4892C69.5402 474.563 69.5861 474.399 69.632 474.24C68.3168 474.322 66.9914 474.246 65.6966 474.005C66.7519 472.707 67.807 471.398 68.8622 470.1C68.8877 470.074 68.9081 470.048 68.9285 470.023C69.4637 469.358 70.0041 468.699 70.5393 468.034L70.5396 468.033C70.5731 465.993 70.3289 463.96 69.8457 461.986Z" fill="#F2F2F2"/>
<path d="M0 476.058C0 476.58 0.418319 477 0.939239 477H286.083C286.603 477 287.022 476.58 287.022 476.058C287.022 475.536 286.603 475.116 286.083 475.116H0.939239C0.418319 475.116 0 475.536 0 476.058Z" fill="#CCCCCC"/>
<path d="M427.729 24.9345V108.835C427.729 116.254 421.711 122.291 414.312 122.291H330.653C323.255 122.291 317.236 116.254 317.236 108.835V24.9345C317.236 17.5148 323.255 11.4787 330.653 11.4787H414.312C421.711 11.4787 427.729 17.5148 427.729 24.9345ZM414.312 120.708C420.851 120.708 426.151 115.392 426.151 108.835V66.5356C426.151 37.0028 402.279 13.0618 372.831 13.0618H330.653C324.115 13.0618 318.815 18.3773 318.815 24.9345V108.835C318.815 115.392 324.115 120.708 330.653 120.708H414.312Z" fill="#3F3D56"/>
<path d="M362.573 187.187H335.565C334.884 187.187 334.33 186.631 334.33 185.948C334.33 185.266 334.884 184.71 335.565 184.71H362.573C363.254 184.71 363.808 185.266 363.808 185.948C363.808 186.631 363.254 187.187 362.573 187.187Z" fill="#3F3D56"/>
<path d="M487.272 2.47669H460.264C459.583 2.47669 459.029 1.92106 459.029 1.2382C459.029 0.555335 459.583 -3.8147e-05 460.264 -3.8147e-05H487.272C487.953 -3.8147e-05 488.507 0.555335 488.507 1.2382C488.507 1.92106 487.953 2.47669 487.272 2.47669Z" fill="#3F3D56"/>
<path d="M487.272 28.8844H460.264C459.583 28.8844 459.029 28.3288 459.029 27.6459C459.029 26.9631 459.583 26.4077 460.264 26.4077H487.272C487.953 26.4077 488.507 26.9631 488.507 27.6459C488.507 28.3288 487.953 28.8844 487.272 28.8844Z" fill="#3F3D56"/>
<path d="M501.765 15.6892H445.771C445.091 15.6892 444.536 15.1336 444.536 14.4507C444.536 13.7679 445.091 13.2125 445.771 13.2125H501.765C502.446 13.2125 503 13.7679 503 14.4507C503 15.1336 502.446 15.6892 501.765 15.6892Z" fill="#3F3D56"/>
<path d="M445.869 209.357H329.087C322.117 209.357 316.447 203.67 316.447 196.68V153.963C316.447 146.974 322.117 141.287 329.087 141.287H445.869C452.839 141.287 458.51 146.974 458.51 153.963V196.68C458.51 203.67 452.839 209.357 445.869 209.357ZM329.087 142.87C322.988 142.87 318.025 147.846 318.025 153.963V196.68C318.025 202.798 322.988 207.774 329.087 207.774H445.869C451.969 207.774 456.931 202.798 456.931 196.68V153.963C456.931 147.846 451.969 142.87 445.869 142.87H329.087Z" fill="#3F3D56"/>
<path d="M490.707 135.746H476.612C452.704 135.746 433.254 116.24 433.254 92.2633V78.1281C433.254 73.2376 437.221 69.2592 442.097 69.2592H490.707C495.583 69.2592 499.55 73.2376 499.55 78.1281V126.877C499.55 131.768 495.583 135.746 490.707 135.746ZM442.097 70.8422C438.085 70.8422 434.833 74.104 434.833 78.1277V92.2633C434.833 115.404 453.538 134.163 476.612 134.163H490.707C494.719 134.163 497.971 130.901 497.971 126.878V95.8278C497.971 82.0286 486.817 70.8422 473.058 70.8422H442.097Z" fill="#3F3D56"/>
<path d="M202.384 266.021C202.75 271.079 205.649 274.989 208.859 274.755C212.069 274.521 214.373 270.231 214.006 265.171C213.888 263.148 213.287 261.183 212.256 259.44L210.435 238.028L200.434 239.099L203.291 260.094C202.521 261.968 202.21 264.001 202.384 266.021Z" fill="#FFB6B6"/>
<path d="M187.074 141.287C187.074 141.287 201.619 141.921 202.251 149.531C202.883 157.141 209.839 205.974 209.839 205.974L213.001 254.806L201.619 256.708L187.801 198.997L187.074 141.287Z" fill="#3F72AF"/>
<path d="M400.367 160.648C403.368 154.91 407.173 150.77 411.366 147.619H361.947C374.666 165.84 391.534 177.534 400.367 160.648Z" fill="#3F72AF"/>
</g>
<defs>
<clipPath id="clip0_20_65">
<rect width="503" height="477" fill="white"/>
</clipPath>
</defs>
</svg>
